<svg width="128" height="128" viewBox="0 0 128 128" fill="none" xmlns="http://www.w3.org/2000/svg">
<g clip-path="url(#clip0_449_211)">
<path d="M15.868 82.264L79.656 18.492L109.492 48.336L45.702 112.108L15.868 82.264Z" fill="#FFCE31"/>
<path d="M122.6 9.2L118.8 5.4C111.6 -1.8 100 -1.8 92.6 5.4L79.6 18.4L109.6 48.4L122.6 35.4C129.8 28.2 129.8 16.4 122.6 9.2Z" fill="#ED4C5C"/>
<path d="M71.564 26.62L79.764 18.416L109.604 48.256L101.404 56.458L71.564 26.62Z" fill="#93A2AA"/>
<path d="M74.676 29.73L82.876 21.528L106.354 45.004L98.15 53.204L74.676 29.73Z" fill="#C7D3D8"/>
<path d="M15.8 82.2L2.80005 116.2L11.8 125.2L45.8 112.2L15.8 82.2Z" fill="#FED0AC"/>
<path d="M0.599948 122.2C-1.20005 127 1.19995 129.2 5.99995 127.4L22.3999 121.2L6.99995 105.8L0.599948 122.2Z" fill="#333333"/>
<path d="M15.78 82.35L71.5 26.63L81.4 36.53L25.68 92.25L15.78 82.35Z" fill="#FFDF85"/>
<path d="M35.808 102.284L91.528 46.564L101.428 56.464L45.708 112.184L35.808 102.284Z" fill="#FF8736"/>
</g>
<defs>
<clipPath id="clip0_449_211">
<rect width="128" height="128" fill="white"/>
</clipPath>
</defs>
</svg>
