<svg width="128" height="128" viewBox="0 0 128 128" fill="none" xmlns="http://www.w3.org/2000/svg">
<path d="M65.6 108C89.9005 108 109.6 88.3005 109.6 64C109.6 39.6995 89.9005 20 65.6 20C41.2994 20 21.6 39.6995 21.6 64C21.6 88.3005 41.2994 108 65.6 108Z" fill="#DAE3EA"/>
<path d="M65.4 34.2C48.2 34.2 34 47.4 33.4 64V63C33.4 46 47.8 32 65.4 32C83 32 97.4 45.8 97.4 63V64C96.8 47.4 82.8 34.2 65.4 34.2Z" fill="#ACB8BF"/>
<path d="M65.4 93.8C82.6 93.8 96.8 80.6 97.4 64V65C97.4 82 83 96 65.4 96C47.8 96 33.4 82.2 33.4 65V64C34.2 80.6 48.2 93.8 65.4 93.8Z" fill="white"/>
<path d="M6.99999 14.8C7.39999 13 8.39999 14.8 8.39999 14.8C8.39999 14.8 8.79999 34.2 10.8 34.4C13 34.8 11.4 14.4 14 14C16.4 13.6 15 34.8 17.2 34.6C19.4 34.4 19.8 14.8 19.8 14.8C19.8 14.8 20.8 13 21.2 14.8C27 37.8 22.4 47.2 22.4 47.2C22.4 47.2 21.6 49.2 19.6 49.2C19.4 49.2 19.6 103.8 19.6 111.2C19.6 114.8 8.59999 114.6 8.59999 111.2C8.59999 103.8 8.79999 49.2 8.59999 49.2C6.59999 49.2 5.79999 47.2 5.79999 47.2C5.79999 47.2 0.99999 37.8 6.99999 14.8ZM111.2 14C113.6 14 124 21.4 124 49C124 57.8 119.2 57.8 119.2 63.4V112.6C119.2 112.6 114 116 110 112.2V14.8C110 14.8 110 14 111.2 14Z" fill="#ACB8BF"/>
</svg>
