<svg width="128" height="128" viewBox="0 0 128 128" fill="none" xmlns="http://www.w3.org/2000/svg">
<g filter="url(#filter0_d_449_225)">
<path d="M91.92 72L82 70L76 72L84 92L92 120H108V105.992C108 92.308 101.704 80.068 91.92 72ZM36 120L44 96L36 72C30.9925 76.1364 26.9615 81.3287 24.1954 87.2052C21.4293 93.0817 19.9967 99.497 20 105.992V120H36Z" fill="#E6E6E6"/>
<path d="M36 72L56 68L76 72C84.708 72 92 79.184 92 88.012V120H36V72Z" fill="#F4F4F4"/>
<path d="M91.936 72H70C71.3631 72.9509 72.4729 74.2207 73.2328 75.6987C73.9928 77.1767 74.3797 78.8182 74.36 80.48V87.16C71.5959 87.1579 68.9453 86.0606 66.9886 84.1084C65.0319 82.1561 63.9285 79.5081 63.92 76.744C63.9115 79.5081 62.8081 82.1561 60.8514 84.1084C58.8947 86.0606 56.2441 87.1579 53.48 87.16V80.48C53.48 76.94 55.3 73.888 58 72H36L36.012 71.96C43.8488 65.4384 53.7245 61.8714 63.92 61.88C74.572 61.88 84.336 65.68 91.936 72Z" fill="#F92F60"/>
<path d="M52 42C52 43.5913 51.3679 45.1174 50.2426 46.2426C49.1174 47.3679 47.5913 48 46 48C44.4087 48 42.8826 47.3679 41.7574 46.2426C40.6321 45.1174 40 43.5913 40 42C40 40.4087 40.6321 38.8826 41.7574 37.7574C42.8826 36.6321 44.4087 36 46 36C47.5913 36 49.1174 36.6321 50.2426 37.7574C51.3679 38.8826 52 40.4087 52 42ZM88 42C88 43.5913 87.3679 45.1174 86.2426 46.2426C85.1174 47.3679 83.5913 48 82 48C80.4087 48 78.8826 47.3679 77.7574 46.2426C76.6321 45.1174 76 43.5913 76 42C76 40.4087 76.6321 38.8826 77.7574 37.7574C78.8826 36.6321 80.4087 36 82 36C83.5913 36 85.1174 36.6321 86.2426 37.7574C87.3679 38.8826 88 40.4087 88 42Z" fill="#FDBB11"/>
<path d="M62.324 14.64C51.708 14.64 43.288 23.6 44.044 34.116L45.524 55.256C46.164 61.88 51.428 66.64 57.856 66.64H70.144C76.568 66.64 81.796 61.92 82.476 55.256L83.956 34.116C84.712 23.564 76.292 14.636 65.676 14.636H62.324V14.64Z" fill="#FFC83D"/>
<path d="M48.92 41.48C49.52 39.16 51.6 37.44 54.12 37.44C56.72 37.44 58.88 39.28 59.36 41.72C59.48 42.28 59.04 42.76 58.48 42.76H49.96C49.28 42.76 48.76 42.12 48.92 41.48ZM77.64 41.48C77.04 39.16 74.96 37.44 72.44 37.44C69.84 37.44 67.68 39.28 67.2 41.76C67.08 42.32 67.52 42.8 68.08 42.8H76.6C77.28 42.8 77.8 42.16 77.64 41.48Z" fill="white"/>
<path d="M51.48 41.88C51.48 39.96 53.04 38.44 54.92 38.44C56.8 38.44 58.32 39.96 58.32 41.88C58.32 42.2 58.28 42.52 58.2 42.8H51.6C51.5208 42.4997 51.4805 42.1905 51.48 41.88ZM75.08 41.88C75.08 40.9677 74.7176 40.0927 74.0724 39.4476C73.4273 38.8024 72.5523 38.44 71.64 38.44C69.76 38.44 68.24 39.96 68.24 41.88C68.24 42.2 68.28 42.52 68.36 42.8H74.96C75.04 42.48 75.08 42.2 75.08 41.88Z" fill="#7D4533"/>
<path d="M54.92 39.92C56 39.92 56.88 40.8 56.88 41.88C56.88 42.2 56.8 42.48 56.64 42.8H53.2C53.0416 42.5193 52.9589 42.2023 52.96 41.88C52.96 40.8 53.84 39.92 54.92 39.92ZM71.68 39.92C71.1601 39.92 70.6616 40.1265 70.294 40.4941C69.9265 40.8616 69.72 41.3602 69.72 41.88C69.72 42.2 69.8 42.48 69.96 42.8H73.4C73.56 42.52 73.64 42.2 73.64 41.88C73.64 41.3602 73.4335 40.8616 73.0659 40.4941C72.6983 40.1265 72.1998 39.92 71.68 39.92Z" fill="black"/>
<path d="M54.36 40.52C54.36 40.6791 54.2968 40.8317 54.1843 40.9443C54.0718 41.0568 53.9192 41.12 53.76 41.12C53.6009 41.12 53.4483 41.0568 53.3358 40.9443C53.2232 40.8317 53.16 40.6791 53.16 40.52C53.16 40.3609 53.2232 40.2083 53.3358 40.0957C53.4483 39.9832 53.6009 39.92 53.76 39.92C53.9192 39.92 54.0718 39.9832 54.1843 40.0957C54.2968 40.2083 54.36 40.3609 54.36 40.52ZM71.2 40.52C71.2 40.6791 71.1368 40.8317 71.0243 40.9443C70.9118 41.0568 70.7592 41.12 70.6 41.12C70.4409 41.12 70.2883 41.0568 70.1758 40.9443C70.0632 40.8317 70 40.6791 70 40.52C70 40.3609 70.0632 40.2083 70.1758 40.0957C70.2883 39.9832 70.4409 39.92 70.6 39.92C70.7592 39.92 70.9118 39.9832 71.0243 40.0957C71.1368 40.2083 71.2 40.3609 71.2 40.52Z" fill="white"/>
<path d="M80 28.372V28C81.192 28.032 82.376 28.008 83.56 27.98C85.036 27.948 86.512 27.916 88 28L85.924 38.06C85.708 39.14 84.628 39.964 83.372 40C83.372 40 83.632 36.908 83.764 34.896C83.848 33.888 83.372 32.88 82.464 32.176L81.644 31.54C81.1472 31.1717 80.7409 30.6949 80.456 30.1459C80.1711 29.597 80.0152 28.9903 80 28.372ZM42.108 38.084L40 28L42.7 28.008C44.472 28.016 46.228 28.024 48 28V28.516C48 29.728 47.4 30.836 46.364 31.644L45.592 32.232C45.1618 32.5293 44.8165 32.9335 44.59 33.4049C44.3634 33.8762 44.2635 34.3983 44.3 34.92C44.432 36.908 44.688 40 44.688 40C43.44 39.96 42.324 39.152 42.108 38.084Z" fill="#F1A11E"/>
<path d="M75.12 35.52C75.5614 35.8618 76.1198 36.0157 76.674 35.9483C77.2281 35.8809 77.7334 35.5977 78.08 35.16C78.76 34.24 78.6 32.92 77.68 32.2C77.56 32.08 74.4 29.68 69.8 30.24C69.5261 30.2698 69.2609 30.3536 69.0197 30.4867C68.7785 30.6198 68.5661 30.7995 68.3949 31.0153C68.2238 31.2312 68.0972 31.4789 68.0225 31.744C67.9478 32.0092 67.9266 32.2866 67.96 32.56C68.08 33.72 69.16 34.52 70.28 34.4C71.9696 34.1982 73.6768 34.5914 75.108 35.512L75.12 35.52ZM48.48 35.12C48.88 35.68 49.52 35.96 50.16 35.96C50.6 35.96 51.04 35.8 51.44 35.52L51.48 35.492C52.9085 34.5909 54.6022 34.2056 56.28 34.4C57.4 34.56 58.48 33.72 58.6 32.56C58.6609 32.0089 58.5017 31.456 58.1572 31.0215C57.8126 30.5871 57.3105 30.3062 56.76 30.24C52.2 29.72 49 32.08 48.88 32.2C47.96 32.92 47.8 34.2 48.48 35.12Z" fill="#D37034"/>
<path d="M62.3599 41.128L60.1079 48.116C59.6399 49.536 60.7479 51 62.3199 51H65.6799C67.2519 51 68.3599 49.536 67.8919 48.116L65.6359 41.128C65.1279 39.624 62.8759 39.624 62.3639 41.128H62.3599Z" fill="#ED9200"/>
<path d="M64 54.584C61.8 54.584 59.72 54.024 57.968 53.088C57.356 52.748 56.744 53.472 57.112 54.068C58.58 56.42 61.108 58 64 58C66.896 58 69.424 56.42 70.892 54.072C71.26 53.472 70.608 52.792 70.036 53.088C68.1756 54.0701 66.1037 54.5836 64 54.584Z" fill="#990839"/>
<path d="M42.28 8H85.56C92.32 8 95.68 16.16 90.92 20.92L88 24V28C88.04 28.8 87.2 29.52 86.4 29.52H41.4C40.6 29.52 40 28.8 40 28V24L36.92 20.92C32.16 16.16 35.52 8 42.28 8Z" fill="#E6E6E6"/>
<path d="M62.08 24.12V14.52C62.08 13.52 62.88 12.68 63.92 12.68C64.92 12.68 65.76 13.48 65.76 14.52V24.12H62.08ZM53.56 24.12H49.92L46.72 15C46.32 13.88 47.16 12.72 48.36 12.72C49.08 12.72 49.76 13.2 50 13.88L53.56 24.12ZM74.24 24.12H77.88L81.08 15C81.48 13.88 80.64 12.72 79.44 12.72C78.72 12.72 78.04 13.2 77.8 13.88L74.24 24.12ZM81.24 86.44C82.0356 86.44 82.7987 86.1239 83.3613 85.5613C83.9239 84.9987 84.24 84.2356 84.24 83.44C84.24 82.6443 83.9239 81.8813 83.3613 81.3187C82.7987 80.7561 82.0356 80.44 81.24 80.44C80.4443 80.44 79.6813 80.7561 79.1186 81.3187C78.556 81.8813 78.24 82.6443 78.24 83.44C78.24 84.2356 78.556 84.9987 79.1186 85.5613C79.6813 86.1239 80.4443 86.44 81.24 86.44ZM81.24 100.96C82.0356 100.96 82.7987 100.644 83.3613 100.081C83.9239 99.5187 84.24 98.7556 84.24 97.96C84.24 97.1643 83.9239 96.4013 83.3613 95.8387C82.7987 95.2761 82.0356 94.96 81.24 94.96C80.4443 94.96 79.6813 95.2761 79.1186 95.8387C78.556 96.4013 78.24 97.1643 78.24 97.96C78.24 98.7556 78.556 99.5187 79.1186 100.081C79.6813 100.644 80.4443 100.96 81.24 100.96ZM81.24 115.52C82.0356 115.52 82.7987 115.204 83.3613 114.641C83.9239 114.079 84.24 113.316 84.24 112.52C84.24 111.724 83.9239 110.961 83.3613 110.399C82.7987 109.836 82.0356 109.52 81.24 109.52C80.4443 109.52 79.6813 109.836 79.1186 110.399C78.556 110.961 78.24 111.724 78.24 112.52C78.24 113.316 78.556 114.079 79.1186 114.641C79.6813 115.204 80.4443 115.52 81.24 115.52Z" fill="#D3D3D3"/>
<path d="M108 92C110.2 92 112 93.64 112 95.648V104H104V95.648C104.04 93.64 105.8 92 108 92Z" fill="#F59F00"/>
<path d="M109.28 64.64C108.646 63.2302 107.618 62.0342 106.319 61.1965C105.02 60.3589 103.506 59.9155 101.96 59.92C100.414 59.9155 98.9005 60.3589 97.6014 61.1965C96.3024 62.0342 95.2738 63.2302 94.6401 64.64C93.7307 66.644 93.2603 68.8193 93.2603 71.02C93.2603 73.2207 93.7307 75.396 94.6401 77.4C95.2401 78.72 96.2001 79.84 97.3201 80.68C98.4001 81.44 99.0801 82.68 99.0801 84.04V111.88C99.0801 113.44 100.32 114.8 101.88 114.84C103.48 114.88 104.8 113.56 104.8 111.96V84C104.8 82.68 105.48 81.44 106.56 80.64C107.72 79.84 108.64 78.72 109.24 77.36C111.08 73.32 111.08 68.68 109.28 64.64Z" fill="#F3C07B"/>
<path d="M101.96 62.6C99.56 62.6 97.4 64 96.44 66.16C95.08 69.2 95.08 72.72 96.44 75.76C97.4 77.92 99.56 79.32 101.96 79.32C104.36 79.32 106.52 77.92 107.48 75.76C108.84 72.72 108.84 69.2 107.48 66.16C106.48 64 104.32 62.6 101.96 62.6Z" fill="#F3AD61"/>
<path d="M94.04 102C94.072 100.4 95.348 99 96.84 99H108.828C110.58 99 112 100.56 112 102.48V116.52C112 118.44 110.58 120 108.828 120H96.84C95.348 120 94.072 118.76 94.04 117.12C94.0117 116.621 94.1064 116.124 94.3156 115.67C94.5249 115.217 94.8423 114.822 95.24 114.52C94.8465 114.239 94.5278 113.866 94.3116 113.434C94.0955 113.002 93.9885 112.523 94 112.04C94 111 94.512 110.08 95.24 109.56C94.8465 109.279 94.5278 108.906 94.3116 108.474C94.0955 108.042 93.9885 107.563 94 107.08C94 106.04 94.512 105.12 95.24 104.6C94.8494 104.292 94.5371 103.896 94.3286 103.444C94.12 102.992 94.0212 102.497 94.04 102Z" fill="#FFC83D"/>
</g>
<defs>
<filter id="filter0_d_449_225" x="-4" y="0" width="136" height="136" filterUnits="userSpaceOnUse" color-interpolation-filters="sRGB">
<feFlood flood-opacity="0" result="BackgroundImageFix"/>
<feColorMatrix in="SourceAlpha" type="matrix" values="0 0 0 0 0 0 0 0 0 0 0 0 0 0 0 0 0 0 127 0" result="hardAlpha"/>
<feOffset dy="4"/>
<feGaussianBlur stdDeviation="2"/>
<feComposite in2="hardAlpha" operator="out"/>
<feColorMatrix type="matrix" values="0 0 0 0 0 0 0 0 0 0 0 0 0 0 0 0 0 0 0.25 0"/>
<feBlend mode="normal" in2="BackgroundImageFix" result="effect1_dropShadow_449_225"/>
<feBlend mode="normal" in="SourceGraphic" in2="effect1_dropShadow_449_225" result="shape"/>
</filter>
</defs>
</svg>
