<svg width="64" height="64" viewBox="0 0 64 64" fill="none" xmlns="http://www.w3.org/2000/svg">
<path d="M32.5 44.3C19.3 44.3 8.30005 40.2 5.80005 34.8C10.4 48.9 7.60005 62 32.5 62C57.4 62 54.6001 48.9 59.2001 34.8C56.7001 40.2 45.7 44.3 32.5 44.3Z" fill="#3E4347"/>
<path d="M20.2 20.5C34.3 16.6 66.7 22.5 59.6 35.9C63.5 40.3 64.9 45 46.3 44.7C17.7 51.4 -5.9 37.5 4.5 27C2 21.9 7.5 19.3 20.2 20.5Z" fill="#6F7980"/>
<path d="M32.5 43.7C45 43.7 55.4 39.8 57.8 34.7C58 34.2 58.1 33.7 58.3 33.2C58.3 32.9 58.4001 32.7 58.4001 32.4C58.4001 26.2 46.8 21.2 32.6 21.2C18.4 21.2 6.80005 26.2 6.80005 32.4C6.80005 32.7 6.80005 32.9 6.90005 33.2C7.00005 33.7 7.20005 34.2 7.40005 34.7C9.60005 39.8 20 43.7 32.5 43.7" fill="#3E4347"/>
<path d="M32.5 43.7C45 43.7 55.4 39.8 57.8 34.7C57.8 34.5 57.9 34.4 57.9 34.2C55.8 28.9 45.2 24.9 32.4 24.9C19.6 24.9 9.00002 28.9 6.90002 34.2C7.00002 34.4 7.00002 34.5 7.00002 34.7C9.60002 39.8 20 43.7 32.5 43.7Z" fill="#FBBF67"/>
<path d="M36 30.4C31 30.3 24.9 34.3 20.8 34C14 33.5 21 36.8 25.8 36.8C29 36.8 31.2 33.9 32.9 32.7C35.3 31.2 41.2 30.5 36 30.4" fill="#D33B23"/>
<path d="M21.2 27.1C19.9 23.5 12.4 29.4 18.8 30.7C19.8 30.9 22.3 30.3 21.2 27.1ZM35.7 38.4C34.1 34 24.8 41.3 32.8 42.8C34 43 37.1 42.3 35.7 38.4ZM37.4 25.8C35.9 22.2 26.6 28.1 34.5 29.4C35.6 29.5 38.7 28.9 37.4 25.8ZM52.7 29.7C52.1 25.8 40.2 28 48.4 32.1C49.6 32.7 53.2 33.2 52.7 29.7Z" fill="#FF8736"/>
<path d="M15.1 33.2C14 31.7 12.4 29.7 11.8 30.7C10.9 32.1 10.6 34.9 11.3 35C16.3 36 15.9 34.4 15.1 33.2M42.6 30.4C40.8 31.2 39.7 30.6 38.9 31.8C37 34.5 43.5 35.4 44.7 33.8C45.6 32.7 43.8 29.9 42.6 30.4M44.1 37.1C42.8 36.5 43.1 38.5 41.1 36.9C39.7 35.8 36.7 38.6 38.7 40.5C40.9 42.6 41.5 40.6 42.4 40.8C44.3 41.1 47.6 38.6 44.1 37.1M22.1 37.7C20.9 36.5 19 39.9 19.7 40.8C21.2 42.8 26.6 42.4 28 40.9C29.8 39.1 25 40.5 22.1 37.7Z" fill="#89664C"/>
<path d="M17.5 36.7C17.5 36.7 17.6 37.9 17.8 38.4C16.5 37.9 16.5 35.6 16.5 35.6C16.5 35.6 15.6 36.1 15.7 37C14.3 35.8 13.1 36.4 13.1 36.4C13.1 36.4 14.9 37.4 15.2 38.1C14.2 38.2 13.6 38.5 13.2 39.3C13.2 39.3 15.2 38.3 16.7 39C16.1 39.5 16.4 40.7 16.4 40.7C18.8 38.2 20.3 40.4 21.4 39.8C20.5 38.6 19.2 38.4 19.2 38.4C18.7 37.4 17.5 36.7 17.5 36.7M28.3 26.9C27.1 26.7 25.9 27.3 25.9 27.3C25.9 27.3 27 27.8 27.5 28C26.4 28.9 24.4 27.7 24.4 27.7C24.4 27.7 24.4 28.7 25.2 29.1C23.5 29.7 23.3 31.1 23.3 31.1C23.3 31.1 25.1 30.1 25.8 30.2C25.3 31.1 25.3 31.8 25.9 32.5C25.9 32.5 26.1 30.3 27.5 29.4C27.6 30.2 28.8 30.5 28.8 30.5C27.9 27.2 30.6 27 30.6 25.8C29.2 25.8 28.3 26.9 28.3 26.9M51.6 35.9C52.1 35.4 54.2 35.1 54.2 35.1C54.2 35.1 53.3 34.1 51.5 34.6C51.9 33.8 51.3 33 51.3 33C51.3 33 50.4 35.1 49 35.1C49.4 34.6 49.9 33.6 49.9 33.6C49.9 33.6 48.5 33.9 47.7 34.8C47.7 34.8 46.4 34.4 45.2 35.2C45.9 36.2 48.2 34.7 49.4 37.9C49.4 37.9 50.1 36.9 49.8 36.2C51.4 36.1 52.9 37.8 52.9 37.8C52.9 36.9 52.5 36.4 51.6 35.9" fill="#699635"/>
<path opacity="0.6" d="M33.3 11.4C29.6 7.6 32.1 2 32.1 2C32.1 2 24.3 9.4 29.2 14.5C34.9 20.4 32.1 24 32.1 24C32.1 24 39.1 17.4 33.3 11.4M22.3 14.8C19.5 12.1 21.4 8 21.4 8C21.4 8 15.6 13.4 19.3 17.1C23.6 21.4 21.4 24 21.4 24C21.4 24 26.6 19.2 22.3 14.8ZM44.3 14.8C41.5 12.1 43.4 8 43.4 8C43.4 8 37.6 13.4 41.3 17.1C45.6 21.4 43.4 24 43.4 24C43.4 24 48.6 19.2 44.3 14.8Z" fill="#A6AEB0"/>
</svg>
